<svg x="0" y="0" width="935" height="1210" viewBox="0 0 935 1210" version="1.1" xmlns="http://www.w3.org/2000/svg" style="display: block;margin-left: auto;margin-right: auto;">
<defs>
<clipPath id="c_1"><path d="M0,0H935V1210H0Z"/></clipPath>
<clipPath id="c0"><path d="M113.2 237V208.9H346.5V237Z"/></clipPath>
<clipPath id="c1"><path d="M349.2 237V208.9H584.3V237Z"/></clipPath>
<clipPath id="c2"><path d="M587 237V208.9H822V237Z"/></clipPath>
<clipPath id="c3"><path d="M109.7 279V256.9H577.6V279Z"/></clipPath>
<clipPath id="c4"><path d="M597.4 279V256.9H824.7V279Z"/></clipPath>
<clipPath id="c5"><path d="M109.7 361.2V278.4H577.6v82.8Z"/></clipPath>
<clipPath id="c6"><path d="M109.7 465.5v-105H577.6v105Z"/></clipPath>
<clipPath id="c7"><path d="M597.4 383.8V360.5H824.7v23.3Z"/></clipPath>
<clipPath id="c8"><path d="M597.4 574.2V383.1H824.7V574.2Z"/></clipPath>
<clipPath id="c9"><path d="M109.7 487V464.9H577.6V487Z"/></clipPath>
<clipPath id="ca"><path d="M109.7 600.8V486.3H577.6V600.8Z"/></clipPath>
<clipPath id="cb"><path d="M597.4 600.8V573.6H824.7v27.2Z"/></clipPath>
<clipPath id="cc"><path d="M109.7 723.3V600.2H577.6V723.3Z"/></clipPath>
<clipPath id="cd"><path d="M109.7 840.1V722.7H577.6V840.1Z"/></clipPath>
<clipPath id="ce"><path d="M109.7 963.7V839.5H577.6V963.7Z"/></clipPath>
<clipPath id="cf"><path d="M109.7 1066.4V963.1H577.6v103.3Z"/></clipPath>
<clipPath id="cg"><path d="M109.7 204.5V109.7H825.3v94.8Z"/></clipPath>
<clipPath id="ch"><path d="M627.9 326.9V306.4H788.2v20.5Z"/></clipPath>
<clipPath id="ci"><path d="M110.1 197.3V115.5H738.6v81.8Z"/></clipPath>
<clipPath id="cj"><path d="M600.9 236.7V204h32.7v32.7Z"/></clipPath>
<clipPath id="ck"><path d="M333 234.4V205.7h28.7v28.7Z"/></clipPath>
<clipPath id="cl"><path d="M123.1 236V203.9h32.1V236Z"/></clipPath>
<clipPath id="cm"><path d="M621.8 666.7v-40H800.7v40Z"/></clipPath>
<clipPath id="cn"><path d="M620.9 721.3V696.4H801.6v24.9Z"/></clipPath>
<clipPath id="co"><path d="M621.8 794.3V754H800.7v40.3Z"/></clipPath>
<clipPath id="cp"><path d="M621.8 866.7V826.2H800.7v40.5Z"/></clipPath>
<clipPath id="cq"><path d="M621.8 920.3v-21H802.7v21Z"/></clipPath>
<clipPath id="cr"><path d="M606.7 1069V952.1H817.1V1069Z"/></clipPath>

<style>
text { white-space: pre; }
path, image { pointer-events: none; }

.s0{font-size:16.87px;font-family:Calibri-Light_6o;fill:#501549;stroke:#501549;stroke-width:0.5;}
.s1{font-size:17.60px;font-family:Calibri-Light_6o;fill:#FFF;stroke:#FFF;stroke-width:0.5;}
.s2{font-size:16.87px;font-family:Calibri-Light_6o;fill:#606;stroke:#606;stroke-width:0.5;}
.s3{font-size:13.75px;font-family:Calibri-Light_6o;fill:#585858;stroke:#585858;stroke-width:0.4;}
.s4{font-size:16.87px;font-family:Calibri_6s;fill:#7E7E7E;}
.s5{font-size:16.87px;font-family:Calibri-Italic_6w;fill:#3B3838;}
.s6{font-size:16.87px;font-family:SymbolMT_6y;fill:#000;}
.s7{font-size:16.87px;font-family:Calibri-Light_6o;fill:#000;}
.s8{font-size:17.60px;font-family:SymbolMT_6y;fill:#000;}
.s9{font-size:17.60px;font-family:Calibri-Light_6o;fill:#000;}
.sa{font-size:16.87px;font-family:Calibri_6s;fill:#3B3838;}
.sb{font-size:16.87px;font-family:Calibri-Light_6o;fill:#00C;}
.sc{font-size:39.78px;font-family:Calibri-Light_6o;fill:#FFF;}
.sd{font-size:18.33px;font-family:Calibri-Light_6o;fill:#FFF;}
.se{font-size:15.22px;font-family:Calibri-Light_6o;fill:#00C;}
.sf{font-size:17.78px;font-family:SegoeUIHistoric_75;fill:#50164A;stroke:#50164A;stroke-width:0.5;}
.sg{font-size:16.87px;font-family:Calibri-LightItalic_71;fill:#50164A;stroke:#50164A;stroke-width:0.5;}

.g0{fill:#FFF;}
.g1{fill:#501549;}
.g2{fill:#E8E8E8;}
.g3{fill:none;stroke:#D1D1D1;stroke-width:1.527;stroke-miterlimit:10;}
.g4{fill:#00C;}
.g5{fill:#50164A;}
.g6{fill:none;stroke:#FFF;stroke-width:0.763;stroke-linejoin:round;}

</style>

</defs>
<path d="M0 0V1210H935V0Z" fill="#FFFFFF" stroke="none"/>
<g clip-path="url(#c_1)">
<text clip-path="url(#c0)" x="158.1" y="225.2" dx="0 0 .1 -.1 -.2 .1 -.1 0 -.1 -.1 0 0 0 -.1 .1 -.1 0 0 -.4 0" class="s0">Heidelberg, Germany </text>
<text clip-path="url(#c1)" x="366.7" y="225.2" dx="0 .1 -.1 -.2 0 0 0 0 0 0 0 -.1 -.2 0 .1 -.1 .1 -.2 -.1 -.1 -.2 .1 0 -.2 -.1 -.1 0" class="s0">skurinch@alumni.caltech.edu </text>
<text clip-path="url(#c2)" x="638.7" y="225.2" dx="0 -.1 -.1 0 .1 -.1 0 -.2 0 .3 0 -.1 0 -.2 0 0 .1 -.1 0 -.2 -.2 -.3 0 -.4 0 0 .1" class="s0">skurinch.github.io/astrolit </text>
<path fill-rule="evenodd" d="M110.2 209.4h3.3v-3.5h-3.3v3.5Z" class="g0"/>
<path fill-rule="evenodd" d="M110.2 209.2h3.3v-3.3h-3.3v3.3Z" class="g0"/>
<path fill-rule="evenodd" d="M113.5 209.2H346.2v-3.3H113.5v3.3Z" class="g0"/>
<path fill-rule="evenodd" d="M346.2 209.4h3.3v-.2h-3.3v.2Z" class="g0"/>
<path fill-rule="evenodd" d="M346.2 209.2h3.3v-3.3h-3.3v3.3Z" class="g0"/>
<path fill-rule="evenodd" d="M349.5 209.2H584v-3.3H349.5v3.3Z" class="g0"/>
<path fill-rule="evenodd" d="M584 209.4h3.3v-.2H584v.2Z" class="g0"/>
<path fill-rule="evenodd" d="M584 209.2h3.3v-3.3H584v3.3Z" class="g0"/>
<path fill-rule="evenodd" d="M587.3 209.2H821.7v-3.3H587.3v3.3Z" class="g0"/>
<path fill-rule="evenodd" d="M821.7 209.4H825v-3.5h-3.3v3.5Z" class="g0"/>
<path fill-rule="evenodd" d="M821.7 209.2H825v-3.3h-3.3v3.3Z" class="g0"/>
<path fill-rule="evenodd" d="M110.2 236.7h3.3V209.4h-3.3v27.3Z" class="g0"/>
<path fill-rule="evenodd" d="M110.2 238.9h236v-2.2h-236v2.2Z" class="g1"/>
<path fill-rule="evenodd" d="M346.2 236.7h3.3V209.4h-3.3v27.3Z" class="g0"/>
<path fill-rule="evenodd" d="M346.2 238.9h2.2v-2.2h-2.2v2.2Z" class="g1"/>
<path fill-rule="evenodd" d="M348.4 238.9H584v-2.2H348.4v2.2Z" class="g1"/>
<path fill-rule="evenodd" d="M584 236.7h3.3V209.4H584v27.3Z" class="g0"/>
<path fill-rule="evenodd" d="M584 238.9h2.2v-2.2H584v2.2Z" class="g1"/>
<path fill-rule="evenodd" d="M586.2 238.9H821.7v-2.2H586.2v2.2Z" class="g1"/>
<path fill-rule="evenodd" d="M821.7 236.7H825V209.4h-3.3v27.3Z" class="g0"/>
<path fill-rule="evenodd" d="M821.7 238.9H825v-2.2h-3.3v2.2Z" class="g1"/>
<path fill-rule="evenodd" d="M110 278.7H577.2V257.2H110v21.5Z" class="g1"/>
<path fill-rule="evenodd" d="M118.3 278.7H569V257.2H118.3v21.5Z" class="g1"/>
<text clip-path="url(#c3)" x="308.6" y="273.9" dx="0 -.2 0 0 -.1 -.2 0 0 -.2" class="s1" data-mappings='[[5,"ti"]]'>Educaon </text>
<path fill-rule="evenodd" d="M597.8 278.7H824.4V257.2H597.8v21.5Z" class="g1"/>
<path fill-rule="evenodd" d="M606 278.7H816.2V257.2H606v21.5Z" class="g1"/>
<text clip-path="url(#c4)" x="641.8" y="273.9" dx="0 -.1 0 0 0 0 -.2 -.2 0 0 0 0 .1 -.1 0 -1.4 0 -.1 -.2 0" class="s1" data-mappings='[[7,"ti"]]'>Publicaons &amp; Talks </text>
<path fill-rule="evenodd" d="M110 360.8H577.2V278.7H110v82.1Z" class="g0"/>
<path fill-rule="evenodd" d="M118.3 299.2H569V278.7H118.3v20.5Z" class="g0"/>
<g clip-path="url(#c5)">
<text x="118.3" y="294.6" dx="0 0 0 -.1 -.1 .1 0 -.2 -.6 0 -.4 -.1 0 0 .1 -.2 .1 0 -.2 -.1 .1 -.5 .1 -.1 0 0 .1 -.2 -.1 0 0 .1 -.1 -.2 .1 -.1 0 -.1 -.1 0" class="s2">Ruprecht-Karls University of Heidelberg </text>
<text x="386.9" y="294.6" dx="0 -.1 0 0 0 0 0 0 0 -.1 0 0 0 -.1 0 0 0 .1 0 0 0 0 .2 -.1 0 0 -.1 0" class="s3">MASTER OF SCIENCE IN PHYSICS </text>
</g>
<path fill-rule="evenodd" d="M118.3 319.8H569V299.2H118.3v20.6Z" class="g0"/>
<text clip-path="url(#c5)" x="118.3" y="315.2" dx="0 0 0 .1 .1 -.2 0 0 -.1 .1 -.1 .1 .1 -.1 0 0 -.1 -.1 0 0 -.1 .1 -.1 -.1 .1 0 -.1 0 -.1 0 0 -.1 0 0 -.1 0 0 0 0 0 -.2 0 -.2 .1 0 -.1 -.1" class="s4">October 2024 – July 2025 • Heidelberg, Germany </text>
<path fill-rule="evenodd" d="M118.3 340.3H569V319.8H118.3v20.5Z" class="g0"/>
<text clip-path="url(#c5)" x="118.3" y="335.7" dx="0 0 -.1 .1 0 0 .1 -.2 .1 -.2 .1 0 -.1 0 0 -.1 -.1 0 0 -.1 0 0 0 .1 0 -.1 -.2 0 0 -.2 0 .1" class="s4">Advisor: Dr. Annalisa Pillepich </text>
<path fill-rule="evenodd" d="M118.3 360.8H569V340.3H118.3v20.5Z" class="g0"/>
<path fill-rule="evenodd" d="M110 465.2H577.2V360.8H110V465.2Z" class="g0"/>
<path fill-rule="evenodd" d="M118.3 381.4H569V360.8H118.3v20.6Z" class="g0"/>
<g clip-path="url(#c6)">
<text x="118.3" y="376.8" dx="0 0 .1 0 -.1 -.3 0 -.1 0 0 -.1 -.3 .1 -.2 -.1 0 0 0 -.4 .1 -.3 0 .1 -.5 -1.6 .1 0 0 -.1 0 0 0 -.1 .1" class="s2" data-mappings='[[14,"ti"]]'>California Instute of Technology </text>
<text x="342.5" y="376.8" dx="0 -.2 0 .2 -.1 0 -.4 0 0 -.2 0 .1 -.2 0 0 -.1 0 0 0 -.1 -.2 -.1 0 -.3 0 0 0 0 0 0 -.1 0 0 .1 0" class="s3">BACHELOR OF SCIENCE IN ASTROPHYSICS </text>
</g>
<path fill-rule="evenodd" d="M118.3 401.8H569V381.4H118.3v20.4Z" class="g0"/>
<text clip-path="url(#c6)" x="118.3" y="397.2" dx="0 0 0 -.1 0 -.1 .1 -.1 0 0 -.1 .1 -.1 .1 -.1 .1 0 0 -.1 -.1 -.1 0 -.1 .1 -.1 .1 .1 -.1 0 -.1 .1 0 0 0 -.1 0 0 0 0 -.2 0 0 0 -.1 0 .1 0 -.1 0 -.2" class="s4">September 2019 – June 2023 • Pasadena, California </text>
<path fill-rule="evenodd" d="M118.3 422.3H569V401.8H118.3v20.5Z" class="g0"/>
<text clip-path="url(#c6)" x="118.3" y="417.7" dx="0 0 -.1 .1 0 0 .1 -.2 .1 -.2 .1 0 .1 -.2 0 0 -.1 .1 0 -.2 .1 -.1 0 -.1 0 -.1 0 0 0 0 -.1 .1 -.1 0 0 -.1 0" class="s4">Advisor: Professor Philip F. Hopkins </text>
<path fill-rule="evenodd" d="M118.3 442.8H569V422.3H118.3v20.5Z" class="g0"/>
<text clip-path="url(#c6)" x="118.3" y="438.2" dx="0 0 0 0 0 0 -.1 0 0 -.2 0 0 0 -.1 .1 0 0 0 -.3 .1 0 0 0 0 -.2 0 -.1 -.1 -.1 0 -.1 0 0 0 .1 -.1 -.1 -.1 -.1 -.1 -.1 0 0 0 0 .1 -.2 0 -.2 .1 -.1 0 -.2 .1 0" class="s5">Earned a minor degree in English Language &amp; Literature. </text>
<path fill-rule="evenodd" d="M597.8 383.4H824.4V360.8H597.8v22.6Z" class="g1"/>
<path fill-rule="evenodd" d="M606 382.3H816.2V360.8H606v21.5Z" class="g1"/>
<text clip-path="url(#c7)" x="634.6" y="377.6" dx="0 -.2 -.1 .1 0 0 -.2 0 0 0 0 -.1 0 -.2 0 -.2 -.2 0 -.2 0 -.2" class="s1">Fellowships &amp; Awards </text>
<g clip-path="url(#c8)">
<text x="604.7" y="409.6" class="s6">• </text>
<text x="625.5" y="409.6" dx="0 -.3 -.1 .1 .1 .1 -.2 0 0 0 0 0 0 -.2 0 -.2 .1 0 0 0 0 -.1 -.5 .1 .1 -.1 -.2" class="s7">U.S. Fulbright Scholarship </text>
<text x="604.7" y="434" class="s6">• </text>
<text x="625.5" y="434" dx="0 .1 .1 -.1 -.2 0 -.3 -.1 0 0 -.2 -.2 -.1 .1 -.2 -.1 -.1 -.1 0 -.2 -.1 0 0 -.2" class="s7">NSF Graduate Fellowship </text>
<text x="604.7" y="458.6" class="s6">• </text>
<text x="625.5" y="458.6" dx="0 0 -.1 -.3 0 -.1 -.1 0 .1 -.1 0 .1 -.1 0 0 -.1 -.2 0 .1 -.1 -.1 0 -.2 -.2 0 -.1" class="s7">Margie Lauritsen Leighton </text>
<text x="625.5" y="479.1" dx="0 -.1 0 0 -.4 -.1 0 -.1 0 -.1 0 -.3 -.3 .1 -.1 .1 -.1" class="s7">Prize in Physics </text>
<text x="604.7" y="503.1" class="s8">• </text>
<text x="625.5" y="503.1" dx="0 0 0 .1 .1 -.2 0 0 0 0 0 -.3 .1 .1 -.2 -.1 0 0 -.4" class="s7">AAS Chambliss Prize </text>
<text x="604.7" y="528.4" class="s8">• </text>
<text x="625.5" y="528.4" dx="0 -.3 -.1 0 0 -.1 0 -.1 0 -.1 0 -.1 0 -.1 0 0 0 0 -.2 -.2 0 -.2 .1" class="s9">Perpall Speaking Award </text>
</g>
<path fill-rule="evenodd" d="M110 486.6H577.2V465.2H110v21.4Z" class="g1"/>
<path fill-rule="evenodd" d="M118.3 486.6H569V465.2H118.3v21.4Z" class="g1"/>
<text clip-path="url(#c9)" x="270.8" y="481.9" dx="0 -.2 -.1 0 -.1 0 -.2 0 0 .1 0 0 0 -.1 0 -.1 -.1 0 0 0" class="s1">Research Experience </text>
<path fill-rule="evenodd" d="M110 600.5H577.2V486.6H110V600.5Z" class="g0"/>
<path fill-rule="evenodd" d="M118.3 507.2H569V486.6H118.3v20.6Z" class="g0"/>
<g clip-path="url(#ca)">
<text x="118.3" y="502.6" dx="0 0 -.2 .1 -.3 0 0 -.1 0 0 .1 -.5 .1 -.2 -.1 0 0 0 -.4 .1 -.3 -.5 0 .1 -.3 -.2 -.1 -.2 -.3 0 0 0 -.5 .1" class="s2" data-mappings='[[14,"ti"]]'>Max Planck Instute for Astronomy </text>
<text x="357.2" y="502.6" dx="0 -.1 -.1 0 -.1 -.2 -.1 0 -.1 0 0 -.1 .2 -.1 0 -.2 0 0 .1 0 -.1 0 -.2 .2 -.1 -.1 0 -.2 -.6 -.6 0 0" class="s3">U.S. FULBRIGHT SCHOLARSHIP AWARD </text>
</g>
<path fill-rule="evenodd" d="M118.3 527.7H569V507.2H118.3v20.5Z" class="g0"/>
<text clip-path="url(#ca)" x="118.3" y="523.1" dx="0 0 0 -.1 0 -.1 .1 -.1 0 0 -.1 .1 -.1 .1 -.1 .1 0 0 -.1 -.1 0 .1 -.1 -.1 .1 -.1 .1 0 0 0 -.2 0 0 -.1 0 0 -.1 0 0 0 0 -.2 0 0 -.2 .1 0 -.1 -.1" class="s4">September 2023 – July 2024 • Heidelberg, Germany </text>
<path fill-rule="evenodd" d="M118.3 548.1H569V527.7H118.3v20.4Z" class="g0"/>
<text clip-path="url(#ca)" x="118.3" y="543.5" dx="0 0 -.1 .1 0 0 .1 -.2 .1 -.2 .1 0 -.1 0 0 -.1 -.1 0 0 -.1 0 0 0 .1 0 -.1 -.2 0 0 -.2 0 .1" class="s4">Advisor: Dr. Annalisa Pillepich </text>
<path fill-rule="evenodd" d="M118.3 568.6H569V548.1H118.3v20.5Z" class="g0"/>
<text clip-path="url(#ca)" x="118.3" y="564" dx="0 0 -.1 -.1 0 0 .1 0 0 0 -.2 .1 0 .1 0 -.2 0 0 0 .1 -.2 .1 0 -.2 0 0 0 .1 -.1 -.1 0 0 0 .1 0 -.1 -.2 0 -.2 .2 0 .1 -.2 0 0 0 0 0 0 0 -.2 0 0 0 -.1 -.1 0 0" class="sa">Supermassive Black Hole Feedback in Ram-Pressure Stripped </text>
<path fill-rule="evenodd" d="M118.3 589.1H569V568.6H118.3v20.5Z" class="g0"/>
<text clip-path="url(#ca)" x="118.3" y="584.5" dx="0 -.1 0 0 0 0 0 0 0 -.1 0 0 0 0 0 0 -.2 0 0 .1 0 -.1 0 0 0 -.1 -.1 0 0 0 -.2 -.2 0 0 -.1 0" class="sa">Jellyfish Galaxies in IllustrisTNG. </text>
<path fill-rule="evenodd" d="M597.8 600.5H824.4V573.9H597.8v26.6Z" class="g1"/>
<path fill-rule="evenodd" d="M606 595.4H816.2V573.9H606v21.5Z" class="g1"/>
<text clip-path="url(#cb)" x="626.4" y="590.6" dx="0 -.1 0 .2 -.1 0 0 0 0 0 0 0 0 0 0 0 -.2 -.2 0 0 -.1" class="s1" data-mappings='[[17,"ti"]]'>Science Communicaon </text>
<path fill-rule="evenodd" d="M110 723H577.2V600.5H110V723Z" class="g0"/>
<path fill-rule="evenodd" d="M118.3 621H569V600.5H118.3V621Z" class="g0"/>
<text clip-path="url(#cc)" x="118.3" y="616.4" dx="0 0 -.1 .2 -.1 -.2 -.1 0 -.1 .1 -.2 .1 0 0 -.1 -.2 .1 0 0 0 -.1 0 .1 -.2 .1 -.3 -.2 .1 0 -.1 -.3 0 .1 -.2 0 -.1 0 -.6 0 0 -.5 -.1 .1 -.1 0 -.1" class="s2">Harvard &amp; Smithsonian Center for Astrophysics </text>
<path fill-rule="evenodd" d="M118.3 641.6H569V621H118.3v20.6Z" class="g0"/>
<text clip-path="url(#cc)" x="118.3" y="637" dx="0 -.1 -.1 -.1 .1 0 .1 -.1 .1 -.1 .1 0 0 0 -.1 -.1 -.1 0 0 -.1 .1 -.1 .1 -.1 .1 0 -.1 0 0 .1 -.1 0 0 -.1 -.1 0 0 -.1 .1 0 0 0 -.2 0 0 -.1 0 0 .1 -.2 -.1" class="s4">June 2022 – August 2022 • Cambridge, Massachusetts </text>
<path fill-rule="evenodd" d="M118.3 662.1H569V641.6H118.3v20.5Z" class="g0"/>
<text clip-path="url(#cc)" x="118.3" y="657.5" dx="0 0 -.1 .1 0 0 .1 -.2 .1 -.2 .1 0 -.1 0 .1 0 -.1 0 0 -.2 0 0 0 0 -.1 -.2 .1 0 .1 0 -.1 0 .1 0 -.1 0 0 0 0 -.3 0 0 0 0 -.2 0 0 0 .1 0 -.3 0" class="s4">Advisor: Dr. Laura Brenneman &amp; Dr. Francesca Civano </text>
<path fill-rule="evenodd" d="M118.3 682.7H569V662.1H118.3v20.6Z" class="g0"/>
<text clip-path="url(#cc)" x="118.3" y="678.1" dx="0 0 0 0 0 -.2 .1 -.2 .1 .1 0 -.1 0 -.2 .1 -.1 -.2 .1 0 0 0 -.1 -.1 0 -.2 -.1 0 0 0 0 0 -.1 0 0 0 0 0 -.2 0 0 .1 -.2 0 0 .1 0 -.1 -.1 0 0 0 0 -.2 0 0 0 0 -.1 0 0 0 0" class="sa">The Coevolution of Supermassive Black Holes and Galaxies with </text>
<path fill-rule="evenodd" d="M118.3 703.2H569V682.7H118.3v20.5Z" class="g0"/>
<g clip-path="url(#cc)">
<text x="118.3" y="698.6" class="sa">the </text>
<text x="145.1" y="698.6" dx="0 0 -.1 -.1 -.1 -.1 .1 -.1" class="s5">Chandra </text>
<text x="206.6" y="698.6" dx="0 0 -.2 0 0 -.1 0 .1 0 -.2 0 0 -.1 -.1 -.1 0" class="sa">X-Ray Telescope. </text>
</g>
<path fill-rule="evenodd" d="M110 839.8H577.2V723H110V839.8Z" class="g0"/>
<path fill-rule="evenodd" d="M118.3 743.3H569V723H118.3v20.3Z" class="g0"/>
<text clip-path="url(#cd)" x="118.3" y="738.8" dx="0 -.2 -.2 0 0 0 -.2 -.3 0 0 0 -.2 .1 0 0 0 -.2 0 -.1 .1 0 -.4 .1 -.2 .1 -.3 -.1 -.1 .1 0 -.1 .1 0 .1 -.2 0 .1 -.1 0 -.1 .1" class="s2">École Polytechnique Fédérale de Lausanne </text>
<path fill-rule="evenodd" d="M118.3 763.9H569V743.3H118.3v20.6Z" class="g0"/>
<text clip-path="url(#cd)" x="118.3" y="759.3" dx="0 0 0 -.1 0 -.1 .1 -.1 0 0 -.1 .1 -.1 .1 -.1 0 0 0 -.1 -.1 -.1 0 -.1 .1 -.1 .1 .1 -.1 0 0 -.1 0 -.1 0 0 -.1 -.1 0 0 .1 0 0 -.2 0 0 0 0 0 -.1 -.1 -.2" class="s4">September 2022 – June 2023 • Lausanne, Switzerland </text>
<path fill-rule="evenodd" d="M118.3 784.4H569V763.9H118.3v20.5Z" class="g0"/>
<text clip-path="url(#cd)" x="118.3" y="779.8" dx="0 0 -.1 .1 0 0 .1 -.2 .1 -.1 .1 0 -.1 0 .1 -.2 0 0 -.1 0 0 0 0 0 -.1 0 0 -.2 -.1 .1 0 -.1 0" class="s4">Advisor: Dr. Michaela Hirschmann </text>
<path fill-rule="evenodd" d="M118.3 804.9H569V784.4H118.3v20.5Z" class="g0"/>
<text clip-path="url(#cd)" x="118.3" y="800.4" dx="0 0 0 0 0 0 0 -.1 0 0 0 -.1 0 -.1 0 .1 0 0 -.2 0 0 0 0 0 -.1 0 -.1 0 0 0 .1 -.1 0 0 -.2 0 0 0 -.1 0 -.1 -.1 0 0 0 0 0 0 0 -.1 -.1 0 -.2 .1 0 0 0 -.2 .1 0" class="sa">On the Origin of Star Formation Quenching in Early, Massive </text>
<path fill-rule="evenodd" d="M118.3 825.5H569V804.9H118.3v20.6Z" class="g0"/>
<text clip-path="url(#cd)" x="118.3" y="820.9" dx="0 0 0 -.1 0 0 0 0 0 -.1 0 0 0 0 0 0 0 -.1 -.1 0 0 0 0 -.2 0 0 -.1" class="sa">Galaxies with IllustrisTNG. </text>
<path fill-rule="evenodd" d="M110 963.4H577.2V839.8H110V963.4Z" class="g0"/>
<g clip-path="url(#ce)">
<path fill-rule="evenodd" d="M118.3 860.1H569V839.8H118.3v20.3Z" class="g0"/>
<text x="118.3" y="855.5" dx="0 0 -.1 0 .1 .1 0 -.1 -.1 0 0 -.2 -.1 .1 0 0 -.3 -.2 0 .1 -.1 -.1 .1 .1 -.1 .1 -.1 0 .1 -.2 -.3 .1 0 -.2 -.1 -.1 0 -.1 -.1 0 -.4 0 0 -.5 -.3 .1 -.1 0 0 0 0 -.1 -.3 -.2 .1 0" class="s2" data-mappings='[[31,"ti"]]'>Carnegie Observatories – Theorecal Astrophysics Center </text>
</g>
<path fill-rule="evenodd" d="M118.3 880.7H569V860.1H118.3v20.6Z" class="g0"/>
<text clip-path="url(#ce)" x="118.3" y="876.1" dx="0 -.1 -.1 -.1 .1 0 .1 -.1 .1 -.1 .1 0 0 0 -.1 -.1 -.1 0 0 -.1 .1 -.1 .1 -.1 .1 0 -.1 .1 0 0 0 -.1 0 0 0 -.2 0 0 0 0 0 -.1 .1 0 -.1 0 -.2" class="s4">June 2021 – August 2021 • Pasadena, California </text>
<path fill-rule="evenodd" d="M118.3 901.2H569V880.7H118.3v20.5Z" class="g0"/>
<text clip-path="url(#ce)" x="118.3" y="896.7" dx="0 0 -.1 .1 0 0 .1 -.2 .1 -.2 .1 0 -.1 0 0 -.1 -.1 0 0 -.1 0 0 .1 -.1 -.2 -.1 0" class="s4">Advisor: Dr. Andrew Benson </text>
<path fill-rule="evenodd" d="M118.3 921.8H569V901.2H118.3v20.6Z" class="g0"/>
<text clip-path="url(#ce)" x="118.3" y="917.2" dx="0 0 0 0 0 0 -.1 -.1 0 0 0 0 0 0 0 -.2 .1 0 -.1 0 -.1 0 -.2 0 .1 -.2 0 -.1 0 0 0 0 .1 -.2 0 .1 0 -.2 0 0 0 -.1 .1 -.2 0 .1 0 0 -.2 0 .3 -.2 .1 -.2 -.1 -.1 .1 0 0 0 0 0 0" class="sa">The Spherical Collapse of Dark Matter Halos with 3-D Numerical </text>
<path fill-rule="evenodd" d="M118.3 942.3H569V921.8H118.3v20.5Z" class="g0"/>
<g clip-path="url(#ce)">
<text x="118.3" y="937.7" dx="0 0 -.1 .1 -.1 0 0 0 0 0 -.1 -.2 0 0 0 -.1 0 .1 -.1 0 .1 -.2 -.2 .1 .1 0 0 -.1 0 0 0 0 0 0 0 -.2 .1 -.1 0" class="sa">Simulations and the Semi-Analytic Code </text>
<text x="393.7" y="937.7" dx="0 0 -.1 0 -.1 0 0 0 -.1 -.1" class="s5">Galacticus </text>
</g>
<path fill-rule="evenodd" d="M110 1066H577.2V963.4H110V1066Z" class="g0"/>
<path fill-rule="evenodd" d="M118.3 983.9H569V963.4H118.3v20.5Z" class="g0"/>
<text clip-path="url(#cf)" x="118.3" y="979.3" dx="0 0 0 0 .1 0 0 -.2 .1 0 0 -.1 0 -.2 .1 0 -.2 .1 -.2 -.2 .1 -.1 .1 0 -.1 -.1 -.1 .1 -.1 .1 0 0 0 -.2 0 .1 -.1 0 -.3 0 0 0 -.2 0" class="s2" data-mappings='[[38,"ti"]]'>Dark Cosmology Center – Niels Bohr Instute </text>
<path fill-rule="evenodd" d="M118.3 1004.5H569V983.9H118.3v20.6Z" class="g0"/>
<text clip-path="url(#cf)" x="118.3" y="999.9" dx="0 -.1 -.1 -.1 .1 0 .1 -.1 .1 -.1 .1 0 0 0 -.1 -.1 -.1 0 0 -.1 .1 -.1 .1 -.1 .1 0 -.1 .1 0 0 0 -.1 0 0 0 -.2 0 0 0 0 0 -.1 .1 0 -.1 0 -.2" class="s4">June 2020 – August 2020 • Pasadena, California </text>
<path fill-rule="evenodd" d="M118.3 1025H569v-20.5H118.3V1025Z" class="g0"/>
<text clip-path="url(#cf)" x="118.3" y="1020.4" dx="0 0 -.1 .1 0 0 .1 -.2 .1 -.2 .1 0 -.1 0 .1 -.2 0 0 -.1 0 0 0 0 0 -.1 0 0 -.2 -.1 .1 0 -.1 .1" class="s4">Advisor: Dr. Michaela Hirschmann </text>
<path fill-rule="evenodd" d="M118.3 1045.5H569V1025H118.3v20.5Z" class="g0"/>
<text clip-path="url(#cf)" x="118.3" y="1040.9" dx="0 0 0 0 0 -.2 .1 0 0 -.1 .1 0 0 0 -.1 -.3 0 0 -.1 0 0 0 0 0 0 -.2 .1 -.2 .1 0 0 -.2 .1 -.1 0 0 -.1 0 0 0 -.1 0 -.1 -.1 0 0 0 0 -.3 0 0 -.2 -.1 .1 0 -.1 0 0 0 0" class="sa">The Role of AGN in Star Formation Quenching in Nearby Dwarf </text>
<path fill-rule="evenodd" d="M118.3 1066H569v-20.5H118.3V1066Z" class="g0"/>
<text clip-path="url(#cf)" x="118.3" y="1061.5" dx="0 0 0 -.1 0 0 0 0 0 .1 0 -.1 0 0 0 -.1 -.1 -.2 0 0 0 0 0 -.1 0 -.2 0 0 -.1 -.1 0 0 0 -.1 0 0 0 0 0 -.2 0 -.1 .1 0 0 0 0 0 -.2 0 .1 0 -.1 -.2 -.2 .1 .1 -.1 0 -.2" class="sa">Galaxies in IllustrisTNG with Synthetic Emission Line Models </text>
<image clip-path="url(#cg)" preserveAspectRatio="none" x="110" y="110" width="715" height="94" href="1/img/1.jpg"/>
<path fill-rule="evenodd" d="M625.6 304.7c0-3.3 2.7-6 6-6H784.3c3.3 0 6 2.7 6 6v23.9c0 3.3-2.7 6-6 6H631.6c-3.3 0-6-2.7-6-6Z" class="g2"/>
<path d="M625.6 304.7c0-3.3 2.7-6 6-6H784.3c3.3 0 6 2.7 6 6v23.9c0 3.3-2.7 6-6 6H631.6c-3.3 0-6-2.7-6-6Z" class="g3"/>
<text clip-path="url(#ch)" x="644" y="322.7" dx="0 0 0 -.1 0 0 0 -.2 .2 -.3 -.1 -.3 0 .1 0 -.1 -.1" class="sb">NASA/Harvard ADS </text>
<path fill-rule="evenodd" d="M644 325.8H772v-.9H644v.9Z" class="g4"/>
<g clip-path="url(#ci)">
<text x="121.4" y="153.7" dx="0 0 0 0 0 0 0 0 0 -1 0 0 -.1 0 0 0 .1 -.1 -1.9 0 -.2 0 -.1 0 0" class="sc">Shalini Kurinchi-Vendhan </text>
<text x="121.4" y="185.7" dx="0 -.1 0 0 0 0 -.4 -.2 0 -.1 0 0 0 0 0 -.3 0 -.3 0 0 -.4 -.2 0 0 .1 0 .2 -.1 .1 -.3 0 0 -.2 0 0 .1 -.1 -.2 0 0 0 -.1 0 0 .1 -.1 .1 0 -.1 0 -.1 -.1 0 0 0 .1 0 -.2 -.1 .1 0 0 0 0 0 .1 0 0 0 -.1 .1" class="sd" data-mappings='[[7,"ti"],[40,"ti"]]'>computaonal astrophysics • galaxy evoluon • supermassive black holes </text>
</g>
<g clip-path="url(#cj)">
<path d="M626.5 224.4H608V213.2h18.5Zm2-11.9c0-.7-.6-1.3-1.3-1.3H607.4c-.8 0-1.4 .6-1.4 1.3v13.9h22.5Z" class="g5"/>
<path d="M619.3 227.7v.3c0 .2-.2 .4-.3 .4c0 0-.1 0-.1 0h-3.3c-.1 0-.3-.1-.3-.3v-.4H602.1v.7c0 .7 .6 1.3 1.3 1.3h27.8c.7 0 1.3-.6 1.3-1.3v-.7Z" class="g5"/>
<path d="M617.3 214.2c-2.6 0-4.7 2-4.7 4.6c0 2.5 2.1 4.6 4.7 4.6c2.5 0 4.6-2.1 4.6-4.6c0-2.6-2.1-4.6-4.6-4.6Zm.3 4.9h1.5c-.2 1.2-.7 2.2-1.5 3Zm0-.6v-3.1c.8 .9 1.4 1.9 1.5 3.1Zm-.7 0h-1.4c.1-1.2 .7-2.2 1.4-3Zm0 .6v3c-.7-.8-1.3-1.9-1.4-3Zm-2.1-.6h-1.4c.1-1.8 1.4-3.2 3.1-3.5c-.9 .9-1.5 2.1-1.7 3.5Zm0 .6c.2 1.3 .8 2.6 1.7 3.5c-1.7-.3-3-1.7-3.1-3.5Zm5 0h1.4c-.2 1.7-1.4 3.1-3.1 3.5c.9-.9 1.5-2.2 1.7-3.5Zm0-.6c-.2-1.4-.8-2.6-1.7-3.5c1.7 .3 2.9 1.8 3.1 3.5Z" class="g5"/>
</g>
<g clip-path="url(#ck)">
<path d="M335.9 212v16.2H359V212H335.9Zm11.9 10.1c-.2 .2-.5 .2-.8 0l-8.5-8.4h17.9l-8.6 8.4Zm-4.6-2.1l-5.6 5.7V214.5l5.6 5.5Zm.9 .8l2.1 2.1c.4 .3 .8 .5 1.3 .5c.4 0 .8-.2 1.2-.5l2.1-2.1l5.6 5.6h-18l5.7-5.6Zm7.5-.8l5.6-5.5v11.1l-5.6-5.6Z" class="g5"/>
</g>
<g clip-path="url(#cl)">
<path d="M139.2 207.7c-6.8 0-12.3 5.5-12.3 12.3c0 6.8 5.5 12.3 12.3 12.3c6.8 0 12.3-5.5 12.3-12.3c0-6.8-5.5-12.3-12.3-12.3Zm0 1.9c5.7 0 10.4 4.7 10.4 10.4c0 5.7-4.7 10.4-10.4 10.4c-5.7 0-10.3-4.7-10.3-10.4c0-5.7 4.6-10.4 10.3-10.4Z" class="g5"/>
<path d="M134.2 225l7.1-2.9l2.9-7.1l-7.1 3l-2.9 7Zm5-5.7c.4 0 .7 .3 .7 .7c0 .4-.3 .6-.7 .6c-.4 0-.6-.2-.6-.6c0-.4 .2-.7 .6-.7Z" class="g5"/>
</g>
<path fill-rule="evenodd" d="M618.4 627.5c0-5.2 4.3-9.5 9.6-9.5H794.3c5.3 0 9.5 4.3 9.5 9.5v38.2c0 5.3-4.2 9.6-9.5 9.6H628c-5.3 0-9.6-4.3-9.6-9.6Z" class="g2"/>
<path d="M618.4 627.5c0-5.2 4.3-9.5 9.6-9.5H794.3c5.3 0 9.5 4.3 9.5 9.5v38.2c0 5.3-4.2 9.6-9.5 9.6H628c-5.3 0-9.6-4.3-9.6-9.6Z" class="g3"/>
<text clip-path="url(#cm)" x="636.5" y="641.8" dx="0 0 0 0 -.1 .2 -.1 .1 0 0 0 0 0 0 .1 0 .1 -.1 0 -.2 0 .1 -1 0" class="se">space-themed children’s </text>
<path fill-rule="evenodd" d="M636.5 644.5H785.9v-.7H636.5v.7Z" class="g4"/>
<text clip-path="url(#cm)" x="660.7" y="661.8" dx="0 -.1 -.1 0 -.3 .2 0 .1 .1 -.2 -.2 .1 0 .1 0 .1 .2" class="se" data-mappings='[[13,"ti"]]'>library storyme </text>
<path fill-rule="evenodd" d="M660.7 664.5h101v-.7h-101v.7Z" class="g4"/>
<path fill-rule="evenodd" d="M618.4 695.2c0-3.8 3.1-6.8 6.8-6.8H797.1c3.7 0 6.7 3 6.7 6.8v27.1c0 3.7-3 6.7-6.7 6.7H625.2c-3.7 0-6.8-3-6.8-6.7Z" class="g2"/>
<path d="M618.4 695.2c0-3.8 3.1-6.8 6.8-6.8H797.1c3.7 0 6.7 3 6.7 6.8v27.1c0 3.7-3 6.7-6.7 6.7H625.2c-3.7 0-6.8-3-6.8-6.7Z" class="g3"/>
<text clip-path="url(#cn)" x="636.8" y="711.3" dx="0 -.2 -.2 0 .2 .1 -.2 .2 -.1 -.1 .1 0 0 .1 -.3 0 0 0 0 .1 -.1 0 -.2 .2 -.2 -.1 .2" class="se" data-mappings='[[22,"ti"]]'>storytelling for sciensts </text>
<path fill-rule="evenodd" d="M636.8 714H785.5v-.7H636.8v.7Z" class="g4"/>
<path fill-rule="evenodd" d="M618.4 754.7c0-5.3 4.4-9.6 9.7-9.6H794.2c5.3 0 9.6 4.3 9.6 9.6v38.6c0 5.3-4.3 9.6-9.6 9.6H628.1c-5.3 0-9.7-4.3-9.7-9.6Z" class="g2"/>
<path d="M618.4 754.7c0-5.3 4.4-9.6 9.7-9.6H794.2c5.3 0 9.6 4.3 9.6 9.6v38.6c0 5.3-4.3 9.6-9.6 9.6H628.1c-5.3 0-9.7-4.3-9.7-9.6Z" class="g3"/>
<text clip-path="url(#co)" x="637.7" y="769" dx="0 0 -.2 -.1 -.3 .1 0 -.1 -.3 .1 .1 .1 -.3 -.2 -.1 0 -.1 .1 0 .1 0 0 -.1 0 0" class="se">astronomy travel diaries </text>
<path fill-rule="evenodd" d="M637.7 771.8H784.8V771H637.7v.8Z" class="g4"/>
<text clip-path="url(#co)" x="666.9" y="789" dx="0 -.3 0 0 0 0 -.1 0 0 .1 -.3 0 -.1 .2 .3" class="se">for classrooms </text>
<path fill-rule="evenodd" d="M666.9 791.7h88.8V791H666.9v.7Z" class="g4"/>
<path fill-rule="evenodd" d="M618.4 827.1c0-5.4 4.4-9.7 9.7-9.7H794.2c5.3 0 9.6 4.3 9.6 9.7v38.5c0 5.3-4.3 9.6-9.6 9.6H628.1c-5.3 0-9.7-4.3-9.7-9.6Z" class="g2"/>
<path d="M618.4 827.1c0-5.4 4.4-9.7 9.7-9.7H794.2c5.3 0 9.6 4.3 9.6 9.7v38.5c0 5.3-4.3 9.6-9.6 9.6H628.1c-5.3 0-9.7-4.3-9.7-9.6Z" class="g3"/>
<text clip-path="url(#cp)" x="635" y="841.2" dx="0 0 0 -.1 0 -.2 0 .1 0 0 -.1 .1 0 0 .2 0 -.1 0 0 .2 0 -.1 .1 -.1" class="se" data-mappings='[[5,"ti"],[13,"ti"]]'>educaonal arcle about </text>
<path fill-rule="evenodd" d="M635 844H787.6v-.7H635v.7Z" class="g4"/>
<text clip-path="url(#cp)" x="662.5" y="861.2" dx="0 0 0 -.1 -.1 .1 .2 0 0 0 -.3 .2 -.1 -.2 0 .1 0 .3" class="se" data-mappings='[[5,"fi"]]'>jellyﬁsh galaxies </text>
<path fill-rule="evenodd" d="M662.5 864h97.6v-.8H662.5v.8Z" class="g4"/>
<path fill-rule="evenodd" d="M619.4 897.5c0-3.3 2.8-6.1 6.1-6.1H798.8c3.3 0 6 2.8 6 6.1v24.2c0 3.4-2.7 6.1-6 6.1H625.5c-3.3 0-6.1-2.7-6.1-6.1Z" class="g2"/>
<path d="M619.4 897.5c0-3.3 2.8-6.1 6.1-6.1H798.8c3.3 0 6 2.8 6 6.1v24.2c0 3.4-2.7 6.1-6 6.1H625.5c-3.3 0-6.1-2.7-6.1-6.1Z" class="g3"/>
<text clip-path="url(#cq)" x="661.8" y="914.1" dx="0 0 -.2 -.1 -.3 .1 0 -.1 0 -.1 0 .1 .2 .1 -.1 0 .2" class="se">astropoetry blog </text>
<path fill-rule="evenodd" d="M661.8 916.8H763v-.7H661.8v.7Z" class="g4"/>
<path fill-rule="evenodd" d="M606.7 1074.5H817.1V946.4H606.7v128.1Z" class="g0"/>
<path d="M606.7 1074.5H817.1V946.4H606.7v128.1Z" class="g6"/>
<g clip-path="url(#cr)">
<text transform="matrix(0.95 0 -0.32 0.95 695.2 970.7)" class="sf"> </text>
<image preserveAspectRatio="none" x="700" y="952" width="40" height="34" href="1/img/2.png"/>
<text x="639.6" y="992.5" dx="0 .1 -.1 -.5 0 -.2 .1 0 -.1 .1 0 -.1 -.1 .1 0 0 -.2 .1 .1 -.2 .1 .1 -.1" class="sg">Like art, cosmological </text>
<text x="626.7" y="1014.7" dx="0 .1 -.1 0 0 0 0 -.1 .1 -.1 .1 .2 -.2 0 -.1 -.1 0 .1 -.1 -.1 -.4 .1 0 0 0 .1 -.2" class="sg" data-mappings='[[6,"ti"]]'>simulaons tell a story by </text>
<text x="618.9" y="1036.9" dx="0 .1 -.1 -.1 .1 -.1 -.1 -.1 .1 .1 -.1 .1 0 -.4 .1 0 .1 -.1 -.1 .1 .1 -.1 -.1 -.4 0 0 -.1 .1 -.2" class="sg">allowing us to visualize how </text>
<text x="628.8" y="1058.9" dx="0 0 0 0 0 -.1 .1 -.1 0 0 0 0 0 -.1 -.1 .1 0 -.1 0 -.2 -.1 0 .1 -.2 -.1" class="sg">the Universe came to be. </text>
</g>

</g>

<style>

@font-face {
	font-family: Calibri-Italic_6w;
	src: url("fonts/Calibri-Italic_6w.woff") format("woff");
}

@font-face {
	font-family: Calibri-LightItalic_71;
	src: url("fonts/Calibri-LightItalic_71.woff") format("woff");
}

@font-face {
	font-family: Calibri-Light_6o;
	src: url("fonts/Calibri-Light_6o.woff") format("woff");
}

@font-face {
	font-family: Calibri_6s;
	src: url("fonts/Calibri_6s.woff") format("woff");
}

@font-face {
	font-family: SegoeUIHistoric_75;
	src: url("fonts/SegoeUIHistoric_75.woff") format("woff");
}

@font-face {
	font-family: SymbolMT_6y;
	src: url("fonts/SymbolMT_6y.woff") format("woff");
}

</style>

</svg>
